<?xml version="1.0" standalone="no"?>
<!DOCTYPE svg PUBLIC "-//W3C//DTD SVG 20010904//EN"
 "http://www.w3.org/TR/2001/REC-SVG-20010904/DTD/svg10.dtd">
<svg version="1.0" xmlns="http://www.w3.org/2000/svg"
 width="110.000000pt" height="113.000000pt" viewBox="0 0 110.000000 113.000000"
 preserveAspectRatio="xMidYMid meet">

<g transform="translate(0.000000,113.000000) scale(0.100000,-0.100000)"
fill="#ff0000" stroke="none">
<path d="M433 1115 c-183 -40 -348 -194 -406 -380 -30 -98 -30 -242 0 -340 81
-259 341 -426 601 -387 203 31 382 186 445 387 30 98 30 242 0 340 -86 275
-365 440 -640 380z m219 -46 c182 -38 339 -194 383 -380 86 -368 -227 -703
-587 -628 -182 38 -339 194 -383 380 -86 368 227 703 587 628z"/>
<path d="M555 779 c-13 -25 -14 -33 -3 -47 7 -9 13 -18 14 -20 1 -1 9 0 18 4
24 9 38 51 26 75 -15 28 -37 23 -55 -12z"/>
<path d="M350 771 c0 -12 89 -55 97 -47 9 9 -8 26 -27 26 -10 0 -20 4 -22 9
-5 13 -48 24 -48 12z"/>
<path d="M510 710 c0 -5 -13 -10 -29 -10 -16 0 -31 -6 -34 -14 -3 -8 -17 -16
-32 -18 -14 -2 -25 -7 -24 -13 2 -12 40 -8 54 6 5 5 16 9 25 9 15 1 60 33 60
44 0 3 -4 6 -10 6 -5 0 -10 -4 -10 -10z"/>
<path d="M502 648 c-18 -11 -34 -31 -38 -46 -3 -15 -10 -37 -15 -50 -5 -13 -9
-35 -9 -50 0 -42 -12 -53 -48 -46 -18 4 -35 11 -38 15 -8 14 -56 11 -52 -3 5
-15 105 -68 129 -68 8 0 23 18 34 43 10 23 28 65 40 92 22 50 45 116 45 128 0
11 -12 7 -48 -15z"/>
<path d="M510 461 c0 -11 20 -44 46 -75 44 -55 74 -71 74 -41 0 8 -4 15 -8 15
-5 0 -26 27 -47 60 -39 60 -65 77 -65 41z"/>
<path d="M706 373 c-27 -52 22 -99 71 -67 42 27 20 94 -30 94 -18 0 -31 -8
-41 -27z"/>
</g>
</svg>
